<svg xmlns="http://www.w3.org/2000/svg" xmlns:xlink="http://www.w3.org/1999/xlink" width="500" zoomAndPan="magnify" viewBox="0 0 375 374.999991" height="500" preserveAspectRatio="xMidYMid meet" version="1.2"><defs><clipPath id="f060030b40"><path d="M 0 60.835938 L 375 60.835938 L 375 313.828125 L 0 313.828125 Z M 0 60.835938 "/></clipPath><clipPath id="9e1cf07876"><path d="M 52.929688 183.484375 L 85 183.484375 L 85 215.84375 L 52.929688 215.84375 Z M 52.929688 183.484375 "/></clipPath><clipPath id="5e3c3d1916"><path d="M 92 183.484375 L 124.410156 183.484375 L 124.410156 215.84375 L 92 215.84375 Z M 92 183.484375 "/></clipPath><clipPath id="42522a1744"><path d="M 52.929688 222.449219 L 142 222.449219 L 142 258.117188 L 52.929688 258.117188 Z M 52.929688 222.449219 "/></clipPath><clipPath id="6b23fc4ab5"><path d="M 160.632812 186.871094 L 326.007812 186.871094 L 326.007812 208.972656 L 160.632812 208.972656 Z M 160.632812 186.871094 "/></clipPath></defs><g id="cfebabed89"><g clip-rule="nonzero" clip-path="url(#f060030b40)"><path style=" stroke:none;fill-rule:nonzero;fill:#2b2b2b;fill-opacity:1;" d="M -37.902344 60.835938 L 412.671875 60.835938 L 412.671875 313.828125 L -37.902344 313.828125 Z M -37.902344 60.835938 "/><path style=" stroke:none;fill-rule:nonzero;fill:#2b2b2b;fill-opacity:1;" d="M -37.902344 60.835938 L 412.671875 60.835938 L 412.671875 313.828125 L -37.902344 313.828125 Z M -37.902344 60.835938 "/></g><g clip-rule="nonzero" clip-path="url(#9e1cf07876)"><path style=" stroke:none;fill-rule:nonzero;fill:#db4a2b;fill-opacity:1;" d="M 68.921875 215.46875 C 77.742188 215.46875 84.914062 208.292969 84.914062 199.476562 C 84.914062 190.65625 77.742188 183.484375 68.921875 183.484375 C 60.105469 183.484375 52.929688 190.65625 52.929688 199.476562 C 52.929688 208.292969 60.105469 215.46875 68.921875 215.46875 Z M 68.921875 215.46875 "/></g><g clip-rule="nonzero" clip-path="url(#5e3c3d1916)"><path style=" stroke:none;fill-rule:nonzero;fill:#db4a2b;fill-opacity:1;" d="M 108.015625 215.46875 C 116.835938 215.46875 124.007812 208.292969 124.007812 199.476562 C 124.007812 190.65625 116.835938 183.484375 108.015625 183.484375 C 99.195312 183.484375 92.023438 190.65625 92.023438 199.476562 C 92.023438 208.292969 99.195312 215.46875 108.015625 215.46875 Z M 108.015625 215.46875 "/></g><g clip-rule="nonzero" clip-path="url(#42522a1744)"><path style=" stroke:none;fill-rule:nonzero;fill:#db4a2b;fill-opacity:1;" d="M 140.878906 222.808594 C 140.320312 222.492188 139.636719 222.503906 139.085938 222.832031 L 124.007812 231.875 L 124.007812 224.351562 C 124.007812 223.371094 123.214844 222.578125 122.230469 222.578125 L 54.707031 222.578125 C 53.726562 222.578125 52.929688 223.371094 52.929688 224.351562 L 52.929688 256.339844 C 52.929688 257.320312 53.726562 258.117188 54.707031 258.117188 L 122.230469 258.117188 C 123.214844 258.117188 124.007812 257.320312 124.007812 256.339844 L 124.007812 248.816406 L 139.085938 257.863281 C 139.367188 258.03125 139.683594 258.117188 140 258.117188 C 140.304688 258.117188 140.605469 258.039062 140.878906 257.886719 C 141.4375 257.570312 141.777344 256.980469 141.777344 256.339844 L 141.777344 224.351562 C 141.777344 223.714844 141.4375 223.125 140.878906 222.808594 Z M 140.878906 222.808594 "/></g><g clip-rule="nonzero" clip-path="url(#6b23fc4ab5)"><path style=" stroke:none;fill-rule:nonzero;fill:#2b2b2b;fill-opacity:1;" d="M 445.507812 208.972656 L 160.632812 208.972656 L 160.632812 186.871094 L 445.507812 186.871094 L 445.507812 208.972656 "/><path style=" stroke:none;fill-rule:nonzero;fill:#db4a2b;fill-opacity:1;" d="M 441.085938 204.382812 L 434.980469 204.382812 C 433.328125 204.382812 431.988281 203.21875 431.988281 201.785156 L 431.988281 193.886719 C 431.988281 192.453125 433.328125 191.289062 434.980469 191.289062 L 441.085938 191.289062 C 442.738281 191.289062 444.078125 192.453125 444.078125 193.886719 L 444.078125 201.785156 C 444.078125 203.21875 442.738281 204.382812 441.085938 204.382812 Z M 429.117188 201.785156 C 429.117188 203.21875 427.773438 204.382812 426.125 204.382812 L 420.015625 204.382812 C 418.367188 204.382812 417.027344 203.21875 417.027344 201.785156 L 417.027344 193.886719 C 417.027344 192.453125 418.367188 191.289062 420.015625 191.289062 L 426.125 191.289062 C 427.773438 191.289062 429.117188 192.453125 429.117188 193.886719 Z M 414.15625 201.785156 C 414.15625 203.21875 412.8125 204.382812 411.164062 204.382812 L 405.054688 204.382812 C 403.40625 204.382812 402.066406 203.21875 402.066406 201.785156 L 402.066406 193.886719 C 402.066406 192.453125 403.40625 191.289062 405.054688 191.289062 L 411.164062 191.289062 C 412.8125 191.289062 414.15625 192.453125 414.15625 193.886719 Z M 399.195312 201.785156 C 399.195312 203.21875 397.851562 204.382812 396.203125 204.382812 L 390.09375 204.382812 C 388.449219 204.382812 387.105469 203.21875 387.105469 201.785156 L 387.105469 193.886719 C 387.105469 192.453125 388.449219 191.289062 390.09375 191.289062 L 396.203125 191.289062 C 397.851562 191.289062 399.195312 192.453125 399.195312 193.886719 Z M 384.234375 201.785156 C 384.234375 203.21875 382.894531 204.382812 381.242188 204.382812 L 375.132812 204.382812 C 373.484375 204.382812 372.144531 203.21875 372.144531 201.785156 L 372.144531 193.886719 C 372.144531 192.453125 373.484375 191.289062 375.132812 191.289062 L 381.242188 191.289062 C 382.894531 191.289062 384.234375 192.453125 384.234375 193.886719 Z M 369.273438 201.785156 C 369.273438 203.21875 367.929688 204.382812 366.28125 204.382812 L 360.171875 204.382812 C 358.523438 204.382812 357.183594 203.21875 357.183594 201.785156 L 357.183594 193.886719 C 357.183594 192.453125 358.523438 191.289062 360.171875 191.289062 L 366.28125 191.289062 C 367.929688 191.289062 369.273438 192.453125 369.273438 193.886719 Z M 354.3125 201.785156 C 354.3125 203.21875 352.96875 204.382812 351.320312 204.382812 L 345.210938 204.382812 C 343.5625 204.382812 342.222656 203.21875 342.222656 201.785156 L 342.222656 193.886719 C 342.222656 192.453125 343.5625 191.289062 345.210938 191.289062 L 351.320312 191.289062 C 352.96875 191.289062 354.3125 192.453125 354.3125 193.886719 Z M 339.351562 201.785156 C 339.351562 203.21875 338.007812 204.382812 336.359375 204.382812 L 330.25 204.382812 C 328.601562 204.382812 327.261719 203.21875 327.261719 201.785156 L 327.261719 193.886719 C 327.261719 192.453125 328.601562 191.289062 330.25 191.289062 L 336.359375 191.289062 C 338.007812 191.289062 339.351562 192.453125 339.351562 193.886719 Z M 324.390625 201.785156 C 324.390625 203.21875 323.046875 204.382812 321.398438 204.382812 L 315.289062 204.382812 C 313.640625 204.382812 312.300781 203.21875 312.300781 201.785156 L 312.300781 193.886719 C 312.300781 192.453125 313.640625 191.289062 315.289062 191.289062 L 321.398438 191.289062 C 323.046875 191.289062 324.390625 192.453125 324.390625 193.886719 Z M 309.429688 201.785156 C 309.429688 203.21875 308.085938 204.382812 306.4375 204.382812 L 300.328125 204.382812 C 298.679688 204.382812 297.339844 203.21875 297.339844 201.785156 L 297.339844 193.886719 C 297.339844 192.453125 298.679688 191.289062 300.328125 191.289062 L 306.4375 191.289062 C 308.085938 191.289062 309.429688 192.453125 309.429688 193.886719 Z M 294.46875 201.785156 C 294.46875 203.21875 293.125 204.382812 291.476562 204.382812 L 285.367188 204.382812 C 283.71875 204.382812 282.378906 203.21875 282.378906 201.785156 L 282.378906 193.886719 C 282.378906 192.453125 283.71875 191.289062 285.367188 191.289062 L 291.476562 191.289062 C 293.125 191.289062 294.46875 192.453125 294.46875 193.886719 Z M 279.507812 201.785156 C 279.507812 203.21875 278.164062 204.382812 276.515625 204.382812 L 270.40625 204.382812 C 268.757812 204.382812 267.417969 203.21875 267.417969 201.785156 L 267.417969 193.886719 C 267.417969 192.453125 268.757812 191.289062 270.40625 191.289062 L 276.515625 191.289062 C 278.164062 191.289062 279.507812 192.453125 279.507812 193.886719 Z M 264.546875 201.785156 C 264.546875 203.21875 263.203125 204.382812 261.554688 204.382812 L 255.445312 204.382812 C 253.796875 204.382812 252.453125 203.21875 252.453125 201.785156 L 252.453125 193.886719 C 252.453125 192.453125 253.796875 191.289062 255.445312 191.289062 L 261.554688 191.289062 C 263.203125 191.289062 264.546875 192.453125 264.546875 193.886719 Z M 249.585938 201.785156 C 249.585938 203.21875 248.242188 204.382812 246.59375 204.382812 L 240.484375 204.382812 C 238.835938 204.382812 237.496094 203.21875 237.496094 201.785156 L 237.496094 193.886719 C 237.496094 192.453125 238.835938 191.289062 240.484375 191.289062 L 246.59375 191.289062 C 248.242188 191.289062 249.585938 192.453125 249.585938 193.886719 Z M 234.625 201.785156 C 234.625 203.21875 233.28125 204.382812 231.632812 204.382812 L 225.523438 204.382812 C 223.875 204.382812 222.535156 203.21875 222.535156 201.785156 L 222.535156 193.886719 C 222.535156 192.453125 223.875 191.289062 225.523438 191.289062 L 231.632812 191.289062 C 233.28125 191.289062 234.625 192.453125 234.625 193.886719 Z M 219.664062 201.785156 C 219.664062 203.21875 218.320312 204.382812 216.671875 204.382812 L 210.5625 204.382812 C 208.914062 204.382812 207.574219 203.21875 207.574219 201.785156 L 207.574219 193.886719 C 207.574219 192.453125 208.914062 191.289062 210.5625 191.289062 L 216.671875 191.289062 C 218.320312 191.289062 219.664062 192.453125 219.664062 193.886719 Z M 204.703125 201.785156 C 204.703125 203.21875 203.359375 204.382812 201.710938 204.382812 L 195.601562 204.382812 C 193.953125 204.382812 192.613281 203.21875 192.613281 201.785156 L 192.613281 193.886719 C 192.613281 192.453125 193.953125 191.289062 195.601562 191.289062 L 201.710938 191.289062 C 203.359375 191.289062 204.703125 192.453125 204.703125 193.886719 Z M 189.742188 201.785156 C 189.742188 203.21875 188.398438 204.382812 186.75 204.382812 L 180.640625 204.382812 C 178.992188 204.382812 177.648438 203.21875 177.648438 201.785156 L 177.648438 193.886719 C 177.648438 192.453125 178.992188 191.289062 180.640625 191.289062 L 186.75 191.289062 C 188.398438 191.289062 189.742188 192.453125 189.742188 193.886719 Z M 174.777344 201.785156 C 174.777344 203.21875 173.4375 204.382812 171.789062 204.382812 L 165.679688 204.382812 C 164.03125 204.382812 162.6875 203.21875 162.6875 201.785156 L 162.6875 193.886719 C 162.6875 192.453125 164.03125 191.289062 165.679688 191.289062 L 171.789062 191.289062 C 173.4375 191.289062 174.777344 192.453125 174.777344 193.886719 Z M 445.507812 186.871094 L 160.632812 186.871094 L 160.632812 208.972656 L 445.507812 208.972656 L 445.507812 186.871094 "/></g><path style=" stroke:none;fill-rule:nonzero;fill:#db4a2b;fill-opacity:1;" d="M 83.257812 176.117188 L 51.394531 176.117188 L 51.394531 87.597656 L 118.316406 87.597656 L 118.316406 124.332031 L 117.429688 124.332031 C 115.363281 116.367188 112.738281 110.050781 109.550781 105.390625 C 106.367188 100.730469 102.605469 97.296875 98.265625 95.082031 C 93.925781 92.867188 88.921875 91.496094 83.257812 90.960938 L 83.257812 126.898438 C 84.441406 126.546875 85.683594 125.605469 86.980469 124.070312 C 88.277344 122.535156 89.488281 120.644531 90.609375 118.402344 C 91.730469 116.160156 92.71875 113.753906 93.574219 111.191406 C 94.429688 108.621094 95.007812 106.097656 95.300781 103.621094 L 96.1875 103.621094 L 96.1875 151.863281 L 95.300781 151.863281 C 95.007812 149.386719 94.429688 146.863281 93.574219 144.292969 C 92.71875 141.726562 91.730469 139.324219 90.609375 137.082031 C 89.488281 134.839844 88.277344 132.953125 86.980469 131.421875 C 85.683594 129.882812 84.441406 128.9375 83.257812 128.578125 Z M 83.257812 176.117188 "/><path style=" stroke:none;fill-rule:nonzero;fill:#db4a2b;fill-opacity:1;" d="M 123.179688 87.597656 L 155.046875 87.597656 L 155.046875 176.117188 L 123.179688 176.117188 Z M 123.179688 87.597656 "/><path style=" stroke:none;fill-rule:nonzero;fill:#db4a2b;fill-opacity:1;" d="M 160.359375 87.597656 L 192.222656 87.597656 L 192.222656 172.664062 C 198.007812 171.839844 203.246094 169.746094 207.941406 166.382812 C 212.632812 163.019531 216.539062 158.433594 219.664062 152.621094 C 222.792969 146.804688 224.890625 139.882812 225.953125 131.855469 L 226.839844 131.855469 L 226.839844 176.117188 L 160.359375 176.117188 Z M 160.359375 87.597656 "/><path style=" stroke:none;fill-rule:nonzero;fill:#db4a2b;fill-opacity:1;" d="M 232.144531 87.597656 L 264.011719 87.597656 L 276.941406 126.371094 L 290.390625 87.597656 L 322.265625 87.597656 L 322.085938 176.117188 L 290.390625 176.117188 L 290.390625 100.347656 L 263.921875 177.886719 L 263.128906 177.886719 L 235.332031 96.804688 L 235.332031 101.675781 C 235.332031 108.460938 235.746094 114.757812 236.570312 120.570312 C 237.394531 126.382812 238.429688 131.769531 239.667969 136.726562 C 240.910156 141.683594 242.132812 146.230469 243.339844 150.363281 C 244.550781 154.492188 245.570312 158.269531 246.398438 161.6875 C 247.222656 165.113281 247.636719 168.210938 247.636719 170.984375 C 247.636719 172.285156 247.410156 173.375 246.96875 174.261719 C 246.527344 175.144531 246.042969 175.765625 245.515625 176.117188 L 232.144531 176.117188 Z M 232.144531 87.597656 "/><path style=" stroke:none;fill-rule:nonzero;fill:#db4a2b;fill-opacity:1;" d="M 178.78125 221.394531 C 183.1875 221.394531 186.957031 222.269531 190.085938 224.015625 C 193.214844 225.761719 195.582031 228.132812 197.1875 231.125 C 198.796875 234.109375 199.605469 237.464844 199.605469 241.191406 C 199.605469 244.890625 198.78125 248.238281 197.132812 251.242188 C 195.492188 254.242188 193.089844 256.617188 189.9375 258.363281 C 186.78125 260.113281 183.0625 260.988281 178.78125 260.988281 L 163.773438 260.988281 L 163.773438 221.394531 Z M 179.46875 252.507812 C 181.289062 252.507812 183.023438 252 184.671875 250.976562 C 186.320312 249.949219 187.648438 248.566406 188.664062 246.832031 C 189.675781 245.097656 190.183594 243.21875 190.183594 241.191406 C 190.183594 239.164062 189.675781 237.28125 188.664062 235.546875 C 187.648438 233.8125 186.320312 232.4375 184.671875 231.425781 C 183.023438 230.414062 181.289062 229.90625 179.46875 229.90625 L 173.195312 229.90625 L 173.195312 252.507812 Z M 179.46875 252.507812 "/><path style=" stroke:none;fill-rule:nonzero;fill:#db4a2b;fill-opacity:1;" d="M 224.574219 220.480469 C 228.421875 220.480469 231.964844 221.410156 235.210938 223.273438 C 238.453125 225.136719 241.023438 227.648438 242.921875 230.8125 C 244.824219 233.980469 245.773438 237.4375 245.773438 241.191406 C 245.773438 244.9375 244.824219 248.402344 242.921875 251.582031 C 241.023438 254.757812 238.445312 257.28125 235.191406 259.140625 C 231.9375 261.003906 228.398438 261.9375 224.574219 261.9375 C 220.71875 261.9375 217.171875 261.003906 213.929688 259.140625 C 210.6875 257.28125 208.117188 254.757812 206.214844 251.582031 C 204.316406 248.402344 203.367188 244.9375 203.367188 241.191406 C 203.367188 237.4375 204.316406 233.980469 206.214844 230.8125 C 208.117188 227.648438 210.6875 225.136719 213.929688 223.273438 C 217.171875 221.410156 220.71875 220.480469 224.574219 220.480469 Z M 224.574219 253.464844 C 226.699219 253.464844 228.664062 252.914062 230.460938 251.8125 C 232.261719 250.710938 233.691406 249.214844 234.757812 247.328125 C 235.820312 245.4375 236.351562 243.390625 236.351562 241.191406 C 236.351562 238.984375 235.820312 236.945312 234.757812 235.074219 C 233.691406 233.199219 232.261719 231.707031 230.460938 230.609375 C 228.664062 229.507812 226.699219 228.957031 224.574219 228.957031 C 222.441406 228.957031 220.472656 229.507812 218.660156 230.609375 C 216.847656 231.707031 215.417969 233.191406 214.367188 235.050781 C 213.316406 236.914062 212.792969 238.960938 212.792969 241.191406 C 212.792969 243.417969 213.316406 245.472656 214.367188 247.347656 C 215.417969 249.21875 216.847656 250.710938 218.660156 251.8125 C 220.472656 252.914062 222.441406 253.464844 224.574219 253.464844 Z M 224.574219 253.464844 "/><path style=" stroke:none;fill-rule:nonzero;fill:#db4a2b;fill-opacity:1;" d="M 271.195312 253.464844 C 273.09375 253.464844 274.871094 253.054688 276.53125 252.234375 C 278.191406 251.410156 279.589844 250.285156 280.730469 248.863281 L 284.378906 257.148438 C 282.707031 258.644531 280.675781 259.816406 278.28125 260.664062 C 275.886719 261.511719 273.523438 261.9375 271.195312 261.9375 C 267.265625 261.9375 263.640625 261.003906 260.320312 259.140625 C 257.003906 257.28125 254.375 254.757812 252.4375 251.582031 C 250.5 248.402344 249.53125 244.9375 249.53125 241.191406 C 249.53125 237.4375 250.5 233.980469 252.4375 230.8125 C 254.375 227.648438 257.003906 225.136719 260.320312 223.273438 C 263.640625 221.410156 267.265625 220.480469 271.195312 220.480469 C 273.550781 220.480469 275.925781 220.890625 278.316406 221.71875 C 280.710938 222.539062 282.730469 223.699219 284.378906 225.191406 L 280.730469 233.550781 C 279.589844 232.109375 278.199219 230.984375 276.554688 230.175781 C 274.90625 229.363281 273.121094 228.957031 271.195312 228.957031 C 268.964844 228.957031 266.917969 229.507812 265.054688 230.609375 C 263.191406 231.707031 261.710938 233.191406 260.609375 235.050781 C 259.511719 236.914062 258.960938 238.960938 258.960938 241.191406 C 258.960938 243.417969 259.511719 245.472656 260.609375 247.347656 C 261.710938 249.21875 263.191406 250.710938 265.054688 251.8125 C 266.917969 252.914062 268.964844 253.464844 271.195312 253.464844 Z M 271.195312 253.464844 "/><path style=" stroke:none;fill-rule:nonzero;fill:#db4a2b;fill-opacity:1;" d="M 312.652344 260.988281 L 299.460938 244.039062 L 299.460938 260.988281 L 290.039062 260.988281 L 290.039062 221.394531 L 299.460938 221.394531 L 299.460938 236.476562 L 311.734375 221.394531 L 323.019531 221.394531 L 307.9375 240.242188 L 323.96875 260.988281 Z M 312.652344 260.988281 "/></g></svg>